HIERARCHY
ROOT base
{
	OFFSET 0.0 0.0 0.0
	CHANNELS 6 Xposition Yposition Zposition Zrotation Yrotation Xrotation
	JOINT root
	{
		OFFSET 0 0 0
		CHANNELS 6 Xposition Yposition Zposition Zrotation Yrotation Xrotation
		JOINT chest
		{
			OFFSET 0 4.72302 0
			CHANNELS 3 Zrotation Yrotation Xrotation
			JOINT neck
			{
				OFFSET 0 4.47788 0
				CHANNELS 3 Zrotation Yrotation Xrotation
				End Site
				{
					OFFSET 0.0 0.0 0.0
				}
			}
			JOINT right_shoulder
			{
				OFFSET -0.481 4.87 3.6622
				CHANNELS 3 Zrotation Yrotation Xrotation
				JOINT right_elbow
				{
					OFFSET 0 -5.49576 0
					CHANNELS 3 Zrotation Yrotation Xrotation
					JOINT right_wrist
					{
						OFFSET 0 -5.17894 0
						CHANNELS 3 Zrotation Yrotation Xrotation
						End Site
						{
							OFFSET 0.0 0.0 0.0
						}
					}
				}
			}
			JOINT left_shoulder
			{
				OFFSET -0.481 4.87 -3.6622
				CHANNELS 3 Zrotation Yrotation Xrotation
				JOINT left_elbow
				{
					OFFSET 0 -5.49576 0
					CHANNELS 3 Zrotation Yrotation Xrotation
					JOINT left_wrist
					{
						OFFSET 0 -5.17894 0
						CHANNELS 3 Zrotation Yrotation Xrotation
						End Site
						{
							OFFSET 0.0 0.0 0.0
						}
					}
				}
			}
		}
		JOINT right_hip
		{
			OFFSET 0 0 1.69774
			CHANNELS 3 Zrotation Yrotation Xrotation
			JOINT right_knee
			{
				OFFSET 0 -8.43092 0
				CHANNELS 3 Zrotation Yrotation Xrotation
				JOINT right_ankle
				{
					OFFSET 0 -8.1974 0
					CHANNELS 3 Zrotation Yrotation Xrotation
					End Site
					{
						OFFSET 0.0 0.0 0.0
					}
				}
			}
		}
		JOINT left_hip
		{
			OFFSET 0 0 -1.69774
			CHANNELS 3 Zrotation Yrotation Xrotation
			JOINT left_knee
			{
				OFFSET 0 -8.43092 0
				CHANNELS 3 Zrotation Yrotation Xrotation
				JOINT left_ankle
				{
					OFFSET 0 -8.1974 0
					CHANNELS 3 Zrotation Yrotation Xrotation
					End Site
					{
						OFFSET 0.0 0.0 0.0
					}
				}
			}
		}
	}
	JOINT red_arrow
	{
		OFFSET 0 0 0
		CHANNELS 3 Zrotation Yrotation Xrotation
		End Site
		{
			OFFSET 0.0 0.0 0.0
		}
	}
	JOINT blue_arrow
	{
		OFFSET 0 0 0
		CHANNELS 3 Zrotation Yrotation Xrotation
		End Site
		{
			OFFSET 0.0 0.0 0.0
		}
	}
}
MOTION
Frames: 15
Frame Time: 0.0333333333333333
-75.8501310184598 0 2.15480432882905 0 -16.4199077189673 0 0 25.0743190288544 0 -174.882432617743 -12.7264181689106 1.80399734975884 -14.9152471106274 1.83475636295618 -6.3538629306208 -17.6651155118924 -22.9922486091579 5.78598255375779 22.7412654160909 22.2732196568486 -39.2920354437809 52.4543945803101 0 0 0 0 0 17.4487866484297 -55.0070830554899 33.4873649942527 35.9285469777892 0 0 0 0 0 129.250484634668 -1.97282659687753 -13.486750297339 -52.2223969598669 0 0 -5.3807084118842 9.71993785457475 -6.19952705354034 123.70307792442 -20.0973848012399 9.36075180036561 -48.9342072896394 0 0 -10.7855131775293 -14.7010559183302 3.04927828094759 0 0 0 0 0 0
-78.4666223049164 0 1.66452170014381 0 -6.82295195597307 0 0 24.5840708971024 0 -157.218808284954 -2.15962867516871 2.88326880507973 -9.75900852191331 1.62285311053638 -4.54911430493807 -24.3920656155731 -28.5185439089282 9.63339858545639 22.554104161836 23.4633774386546 -41.7446459523944 50.5117077803455 0 0 0 0 0 22.4322134460658 -50.6129467859658 22.9987034582018 39.5995004491042 0 0 0 0 0 127.096247832043 -2.04548479815381 -10.0134471679773 -45.7166588509027 0 0 -0.917116345138059 11.7215402166343 -6.71049648792272 122.595704723609 -17.5497858643094 5.33917915051639 -35.3636698428616 0 0 4.25685157906889 -5.049207902188 -1.04243850344537 0 0 0 0 0 0
-81.3716974616051 0 1.19706878066063 0 2.27147252097818 0 0 23.0828841924667 0 -136.709121680926 5.25808947239939 9.07816289967775 -6.01694858543084 0.697572344059536 -3.07918636002088 -32.8654387520819 -27.7536328675426 13.5290132344414 21.8502410072933 21.6105913718329 -41.2484693173594 53.147901252782 0 0 0 0 0 21.9481246687537 -50.1150678447795 20.0565301107989 39.2972816538041 0 0 0 0 0 123.023526137266 -0.807240819760148 -6.49828550582175 -45.8112159897723 0 0 2.25345175645642 9.63227341097773 -4.61291466684865 120.030216651706 -15.3952276571043 1.35985449187158 -28.7733500863105 0 0 11.5545271028562 0.485579469089358 -2.37375186756839 0 0 0 0 0 0
-84.107885146141 0 0.849012231826782 0 10.878079208367 0 0 20.4588550329208 0 -113.969690646442 6.85072954487939 17.695031136595 -0.488190137635037 -1.73471151936151 -0.37803047913435 -40.2522034617141 -23.5687923058725 15.1777321983505 20.2664790805628 17.6353772081121 -38.0971335994503 56.3174471220318 0 0 0 0 0 21.2729638212211 -51.8284188043242 17.9047682721287 31.7307297893723 0 0 0 0 0 116.173847351191 -0.220391794655585 -4.36925531522414 -49.4101621917625 0 0 6.82111230295269 8.06117043383523 -2.33355961890458 115.031276902663 -13.5545761058763 -1.91200458224045 -29.8208244823291 0 0 17.7504470451231 4.30574627006812 -2.30201870767741 0 0 0 0 0 0
-86.1925789952278 0 0.639968967437744 0 17.5698475728007 0 0 17.1565566301346 0 -92.6014523535806 3.42902191437183 24.2791553567205 4.3084315097335 -5.36642788102119 1.42877538127632 -40.0817181285988 -17.7304780160042 14.6289532178639 18.925897077972 14.9701358750936 -37.3279630421806 57.7859207181116 0 0 0 0 0 17.687929575054 -55.3706849392059 21.8686697882442 32.3019146039983 0 0 0 0 0 106.857556560652 0.883493033315655 -4.68978434783568 -51.371843747809 0 0 4.31736117558138 5.69300104672029 -1.89015920813159 107.911054219416 -9.8617588379299 -4.82338582217582 -30.0312352899005 0 0 20.6990538181117 5.46199964590506 -2.45477728569634 0 0 0 0 0 0
-87.7326421618462 0 0.472806140780449 0 17.7253091267079 0 0 14.9625539064407 0 -79.9338689916701 0.516717657439944 23.2633177985784 0.00591879122395515 -4.33422329301045 1.16859448369478 -30.1402536845478 -19.4589842279517 11.2988933159889 21.6589408083959 14.1418957242328 -43.6158793842896 43.8349451496587 0 0 0 0 0 19.7312807766461 -66.1648003267297 29.3378271151289 25.3137892622601 0 0 0 0 0 102.162286808825 3.14014842464605 -6.94233546225144 -65.865324166563 0 0 41.4029421195318 4.74407146140579 2.92154447177215 118.524490729354 -5.8758522023584 -9.15318207758725 -63.2357013361081 0 0 26.5212921631489 4.6190984163967 -0.671455561508558 0 0 0 0 0 0
-88.7504334807396 0 0.407450202107429 0 18.8128523640932 0 0 14.5515525460243 0 -86.9551338945632 1.14763810169893 25.7202325417222 18.0956982521797 -2.08742884181178 -2.69610731479267 -30.5230834195872 -12.8047884890401 4.09080226274925 20.9042167810964 16.6239307554625 -34.7201764485084 31.9980633934866 0 0 0 0 0 19.5154919647066 -59.3380588255924 25.7794993094131 11.0897700515468 0 0 0 0 0 115.111935743522 4.31404025681505 -3.96511154072105 -70.2023645159269 0 0 42.9709667745553 4.86014184249015 3.15847156801818 131.001170779566 -3.17675579447083 -4.80360256731396 -67.5621412318801 0 0 24.5889497585124 1.69966113365956 -1.01906203474704 0 0 0 0 0 0
-89.4356338739395 0 0.396087285876274 0 18.1775053963143 0 0 14.3441486001015 0 -79.8610527051431 -2.15602737299211 23.4962240618164 9.78641910930466 -2.28111672132439 -0.906111500242207 -20.4567591589864 -9.20611339120601 -2.28675302650601 28.7964253641601 18.4709726751449 -23.9608218059727 30.6208957662315 0 0 0 0 0 29.3279332244987 -52.8770946951699 21.1695990250894 3.80584799987551 0 0 0 0 0 111.575725845129 0.72986718631589 -5.7612418777987 -73.3115827393326 0 0 41.9506722232522 7.76551516565445 3.23565536765175 126.54822995548 -2.11377220354379 -3.82982885962001 -68.4097472173112 0 0 21.9104602287621 -1.17973664918236 -0.993217490531184 0 0 0 0 0 0
-89.8805068492889 0 0.431276276707649 0 17.6125640628222 0 0 14.3513394713402 0 -71.5516567982274 -3.43292334965564 20.5262370179082 3.57482190993259 -1.82932558864776 0.252515410600598 -13.2219623872958 -5.42173067021937 -3.2221128254417 33.6608240785577 19.7084037000007 -16.3506463583746 30.3098933476587 0 0 0 0 0 42.4009725092959 -46.9042060560882 14.3927343069383 2.19123098055905 0 0 0 0 0 105.320491815734 -2.49533989123062 -9.46353847714293 -73.9055701405027 0 0 40.7484940092756 6.94029107796602 3.21631149646328 119.146579017922 0.573883262320657 -3.76675068129799 -66.354529635676 0 0 18.8311805161494 -5.42445814069182 -0.352977953742047 0 0 0 0 0 0
-90.1972785711288 0 0.450866986811161 0 17.0149332430345 0 0 14.4922552585602 0 -64.191189581617 -4.99666429030354 18.0914766091335 -1.25030376598658 -1.49055050774966 0.962536241472571 -8.41584881481363 -3.15635560166415 -3.40196994145943 35.9680831639142 19.7506090579384 -10.3952435781136 32.8297550381515 0 0 0 0 0 49.2724907596574 -40.6867335132207 10.2810838609716 2.22260054531304 0 0 0 0 0 99.2212779410492 -4.54287079946119 -11.2096953122457 -72.7702765872307 0 0 39.7899097894899 3.3707071029155 3.21301594464814 111.233385437831 2.38675952111219 -3.10666381256946 -63.3085111526604 0 0 15.9319314675663 -8.67831745201038 0.383874379685123 0 0 0 0 0 0
-90.3110219120979 0 0.437934011220932 0 16.3917069388666 0 0 14.8139901399612 0 -56.9360741022732 -6.5255254798592 15.9794400417645 -4.32238934862959 -1.38346128128616 1.47142596795571 -7.65363144205191 -2.45709180175507 -2.44366314223779 33.2069632581953 17.700378382778 -7.33307904427975 38.2733679953275 0 0 0 0 0 47.8063999903024 -34.9070640936542 9.06608026307637 6.0395213490502 0 0 0 0 0 90.5858963399825 -6.23783844313547 -11.8349944806558 -68.7041078799712 0 0 35.8661106474073 3.50597793035079 3.07454014328769 101.599354481255 3.57600023548516 -2.66873591512905 -58.6202351554178 0 0 13.242956980427 -10.8798623964663 1.07338628082006 0 0 0 0 0 0
-90.2387434005737 0 0.414701655507088 0 15.7790809112551 0 0 15.44261302948 0 -49.9176397771503 -7.55552625404936 13.9282772202138 -6.59704280084379 -1.32541505803782 1.81622828651823 -9.1883108505263 -3.31036917789406 -1.02074861589074 27.2244912748472 14.2835757215245 -6.04446653876271 44.7385655164731 0 0 0 0 0 43.779972801608 -31.0386205865607 8.48158888346646 9.52877385919634 0 0 0 0 0 79.3663558703082 -7.99826006161399 -11.8292594132354 -60.5736692580415 0 0 32.2260901914905 3.45755432019102 3.13210990431436 89.2232149376035 4.14463878267635 -2.8051676266353 -49.707333477266 0 0 9.47502139969089 -12.2215466129818 1.55307941800386 0 0 0 0 0 0
-89.9946626186371 0 0.356539073213935 0 15.1244802721942 0 0 16.1150189638138 0 -42.3886486485003 -9.25193244455514 11.8809548353965 -8.46182759637748 -1.22062625925747 2.29240471265981 -11.9436371834587 -4.69998403869612 0.455472346676562 21.1312423767511 11.0507875596647 -5.16834716094921 49.6486928881469 0 0 0 0 0 37.9711234971019 -27.3191629081109 8.58519259972735 12.1919218194186 0 0 0 0 0 65.8538766188396 -9.30017307999452 -10.6699423609448 -50.7730786293144 0 0 30.828653223616 2.35718830725738 3.55188849584772 74.9089722208485 3.85916599528469 -2.66486051818125 -39.5013096495961 0 0 5.90266764392447 -11.4548958777781 1.73978557770231 0 0 0 0 0 0
-89.6887754201889 0 0.276337276399136 0 14.3967353692812 0 0 16.6874411344528 0 -35.5408465195231 -11.3249801066786 10.1084743031884 -8.86813836088683 -0.969046513796017 2.50817077522907 -13.7854024693244 -6.00392426171158 1.83005926432041 16.1005310529477 8.36681969562828 -4.35945895199736 52.3635223284977 0 0 0 0 0 31.6017322076894 -23.1983422313427 8.83453801626003 13.8795556953966 0 0 0 0 0 52.7048687862246 -9.64070973532548 -8.9027969838948 -40.7477781919884 0 0 30.423919235224 0.447452289985493 3.90970456356453 61.2135818610223 3.35953648242989 -2.21770497419386 -29.5296535180115 0 0 3.05614245759798 -9.32041482926002 1.69924483036524 0 0 0 0 0 0
-89.3523169159889 0 0.221657560765743 0 13.5965273174703 0 0 17.0826019883156 0 -29.1411981795839 -13.3530750735845 8.2570713188685 -8.29067940284234 -0.687641980706598 2.41120119656195 -15.0813162047907 -6.90461752129467 3.14004955200532 11.6970771844693 5.94182310618493 -3.40266695677926 52.3039733242189 0 0 0 0 0 25.5951148783019 -19.113099987495 8.80609628263033 14.7658973911581 0 0 0 0 0 40.3071189172152 -8.677132852214 -6.7159765299411 -31.4688056950806 0 0 28.4981617219825 -0.915860229840953 3.9526596853879 48.4102803817713 2.70759628965001 -1.6750757218232 -21.0743608538722 0 0 0.661241975864857 -7.11502889021685 1.71801756103186 0 0 0 0 0 0
